<svg width="40" height="40" viewBox="0 0 40 40" fill="none" xmlns="http://www.w3.org/2000/svg">
  <defs>
    <linearGradient id="iconGradient" x1="0%" y1="0%" x2="100%" y2="100%">
      <stop offset="0%" style="stop-color:#8B73C2;stop-opacity:1" />
      <stop offset="100%" style="stop-color:#6B549C;stop-opacity:1" />
    </linearGradient>
    <filter id="iconShadow" x="-20%" y="-20%" width="140%" height="140%">
      <feDropShadow dx="0" dy="2" stdDeviation="2" flood-color="#523C78" flood-opacity="0.3"/>
    </filter>
  </defs>
  
  <!-- Background circle -->
  <circle cx="20" cy="20" r="18" fill="url(#iconGradient)" filter="url(#iconShadow)"/>
  
  <!-- House with WiFi waves and connection dots -->
  <g>
    <!-- House base -->
    <path d="M8 25 L20 15 L32 25 L32 30 L8 30 Z" fill="white" stroke="#523C78" stroke-width="1"/>
    
    <!-- House roof -->
    <path d="M18 16 L20 14 L22 16 L20 18 Z" fill="#17B6A8"/>
    
    <!-- Door -->
    <rect x="18" y="25" width="4" height="5" fill="#17B6A8" rx="1"/>
    
    <!-- WiFi waves emanating from house -->
    <g stroke="white" stroke-width="1.5" fill="none" opacity="0.9">
      <path d="M20 20 Q20 18 20 16" stroke-dasharray="2,2"/>
      <path d="M20 22 Q20 20 20 18" stroke-dasharray="2,2"/>
      <path d="M20 24 Q20 22 20 20" stroke-dasharray="2,2"/>
    </g>
    
    <!-- Connection dots representing property/connectivity -->
    <circle cx="12" cy="18" r="1.5" fill="#FFB86B"/>
    <circle cx="28" cy="18" r="1.5" fill="#FFB86B"/>
    <circle cx="20" cy="12" r="1.5" fill="#17B6A8"/>
  </g>
</svg>
